<svg xmlns="http://www.w3.org/2000/svg" version="1.1" xmlns:xlink="http://www.w3.org/1999/xlink" xmlns:svgjs="http://svgjs.dev/svgjs" viewBox="0 0 800 800"><circle r="5.5" cx="595" cy="323" fill="hsl(91, 75%, 70%)" opacity="0.66"></circle><circle r="8.5" cx="474" cy="162" fill="hsl(158, 75%, 70%)" opacity="0.68"></circle><circle r="7.5" cx="625" cy="429" fill="hsl(80, 75%, 70%)" opacity="0.12"></circle><circle r="6" cx="323" cy="692" fill="hsl(59, 75%, 70%)" opacity="0.58"></circle><circle r="8" cx="452" cy="41" fill="hsl(167, 75%, 70%)" opacity="0.99"></circle><circle r="5.5" cx="551" cy="176" fill="hsl(120, 75%, 70%)" opacity="0.61"></circle><circle r="3.5" cx="181" cy="767" fill="hsl(84, 75%, 70%)" opacity="0.60"></circle><circle r="5.5" cx="715" cy="317" fill="hsl(139, 75%, 70%)" opacity="0.29"></circle><circle r="11" cx="137" cy="542" fill="hsl(140, 75%, 70%)" opacity="0.66"></circle><circle r="8" cx="538" cy="74" fill="hsl(130, 75%, 70%)" opacity="0.75"></circle><circle r="5.5" cx="504" cy="789" fill="hsl(157, 75%, 70%)" opacity="0.31"></circle><circle r="9" cx="22" cy="527" fill="hsl(202, 75%, 70%)" opacity="0.91"></circle><circle r="8.5" cx="560" cy="474" fill="hsl(119, 75%, 70%)" opacity="0.86"></circle><circle r="14" cx="23" cy="398" fill="hsl(202, 75%, 70%)" opacity="0.28"></circle><circle r="4.5" cx="687" cy="293" fill="hsl(101, 75%, 70%)" opacity="0.90"></circle><circle r="7.5" cx="550" cy="298" fill="hsl(129, 75%, 70%)" opacity="0.77"></circle><circle r="6.5" cx="485" cy="760" fill="hsl(168, 75%, 70%)" opacity="0.86"></circle><circle r="8.5" cx="341" cy="323" fill="hsl(81, 75%, 70%)" opacity="0.66"></circle><circle r="12.5" cx="771" cy="89" fill="hsl(297, 75%, 70%)" opacity="0.19"></circle><circle r="7" cx="699" cy="391" fill="hsl(112, 75%, 70%)" opacity="0.97"></circle><circle r="9.5" cx="533" cy="366" fill="hsl(139, 75%, 70%)" opacity="0.27"></circle><circle r="10" cx="659" cy="129" fill="hsl(150, 75%, 70%)" opacity="0.85"></circle><circle r="3.5" cx="298" cy="367" fill="hsl(42, 75%, 70%)" opacity="0.69"></circle><circle r="5.5" cx="236" cy="659" fill="hsl(42, 75%, 70%)" opacity="0.26"></circle><circle r="11" cx="114" cy="158" fill="hsl(194, 75%, 70%)" opacity="0.44"></circle><circle r="5" cx="597" cy="121" fill="hsl(128, 75%, 70%)" opacity="0.11"></circle><circle r="3.5" cx="259" cy="788" fill="hsl(34, 75%, 70%)" opacity="0.36"></circle><circle r="6.5" cx="428" cy="487" fill="hsl(160, 75%, 70%)" opacity="0.58"></circle><circle r="5" cx="479" cy="336" fill="hsl(168, 75%, 70%)" opacity="0.59"></circle><circle r="8.5" cx="785" cy="349" fill="hsl(225, 75%, 70%)" opacity="0.33"></circle><circle r="9.5" cx="753" cy="336" fill="hsl(190, 75%, 70%)" opacity="0.55"></circle><circle r="10.5" cx="587" cy="551" fill="hsl(99, 75%, 70%)" opacity="0.82"></circle><circle r="8.5" cx="261" cy="155" fill="hsl(71, 75%, 70%)" opacity="0.64"></circle><circle r="8" cx="274" cy="601" fill="hsl(34, 75%, 70%)" opacity="0.11"></circle><circle r="7.5" cx="661" cy="559" fill="hsl(85, 75%, 70%)" opacity="0.11"></circle><circle r="8.5" cx="157" cy="481" fill="hsl(112, 75%, 70%)" opacity="0.76"></circle><circle r="17" cx="220" cy="48" fill="hsl(259, 75%, 70%)" opacity="0.59"></circle><circle r="3.5" cx="295" cy="675" fill="hsl(42, 75%, 70%)" opacity="0.23"></circle><circle r="8.5" cx="750" cy="666" fill="hsl(190, 75%, 70%)" opacity="0.51"></circle><circle r="6.5" cx="350" cy="781" fill="hsl(81, 75%, 70%)" opacity="0.21"></circle><circle r="7" cx="196" cy="663" fill="hsl(71, 75%, 70%)" opacity="0.13"></circle><circle r="7" cx="515" cy="760" fill="hsl(149, 75%, 70%)" opacity="0.56"></circle><circle r="7.5" cx="167" cy="378" fill="hsl(97, 75%, 70%)" opacity="0.59"></circle><circle r="6.5" cx="749" cy="786" fill="hsl(172, 75%, 70%)" opacity="0.54"></circle><circle r="10.5" cx="81" cy="579" fill="hsl(185, 75%, 70%)" opacity="0.50"></circle><circle r="8.5" cx="518" cy="537" fill="hsl(149, 75%, 70%)" opacity="0.68"></circle><circle r="6" cx="517" cy="185" fill="hsl(146, 75%, 70%)" opacity="0.14"></circle><circle r="5.5" cx="674" cy="689" fill="hsl(92, 75%, 70%)" opacity="0.40"></circle><circle r="6" cx="623" cy="774" fill="hsl(81, 75%, 70%)" opacity="0.39"></circle><circle r="7.5" cx="410" cy="114" fill="hsl(151, 75%, 70%)" opacity="0.95"></circle><circle r="11.5" cx="770" cy="444" fill="hsl(207, 75%, 70%)" opacity="0.97"></circle><circle r="4.5" cx="268" cy="396" fill="hsl(34, 75%, 70%)" opacity="0.34"></circle><circle r="8" cx="429" cy="345" fill="hsl(160, 75%, 70%)" opacity="0.43"></circle><circle r="11" cx="155" cy="593" fill="hsl(112, 75%, 70%)" opacity="0.66"></circle><circle r="8.5" cx="208" cy="146" fill="hsl(126, 75%, 70%)" opacity="0.76"></circle><circle r="7" cx="615" cy="163" fill="hsl(101, 75%, 70%)" opacity="0.31"></circle><circle r="6.5" cx="638" cy="343" fill="hsl(81, 75%, 70%)" opacity="0.68"></circle><circle r="6" cx="666" cy="262" fill="hsl(92, 75%, 70%)" opacity="0.61"></circle><circle r="5.5" cx="662" cy="300" fill="hsl(85, 75%, 70%)" opacity="0.42"></circle><circle r="5.5" cx="455" cy="336" fill="hsl(169, 75%, 70%)" opacity="0.45"></circle><circle r="8" cx="786" cy="761" fill="hsl(225, 75%, 70%)" opacity="0.77"></circle><circle r="11" cx="716" cy="84" fill="hsl(247, 75%, 70%)" opacity="0.21"></circle><circle r="7.5" cx="728" cy="691" fill="hsl(155, 75%, 70%)" opacity="0.99"></circle><circle r="7.5" cx="512" cy="472" fill="hsl(157, 75%, 70%)" opacity="0.45"></circle><circle r="5.5" cx="577" cy="14" fill="hsl(113, 75%, 70%)" opacity="0.16"></circle><circle r="6" cx="481" cy="58" fill="hsl(152, 75%, 70%)" opacity="0.58"></circle><circle r="7" cx="572" cy="139" fill="hsl(123, 75%, 70%)" opacity="0.58"></circle><circle r="8.5" cx="618" cy="483" fill="hsl(81, 75%, 70%)" opacity="0.83"></circle><circle r="6.5" cx="444" cy="432" fill="hsl(166, 75%, 70%)" opacity="0.10"></circle><circle r="12.5" cx="43" cy="685" fill="hsl(201, 75%, 70%)" opacity="0.53"></circle><circle r="8.5" cx="54" cy="47" fill="hsl(244, 75%, 70%)" opacity="1.00"></circle><circle r="10.5" cx="728" cy="46" fill="hsl(255, 75%, 70%)" opacity="0.19"></circle><circle r="11" cx="390" cy="232" fill="hsl(131, 75%, 70%)" opacity="0.47"></circle><circle r="13.5" cx="179" cy="20" fill="hsl(294, 75%, 70%)" opacity="0.81"></circle><circle r="8.5" cx="422" cy="734" fill="hsl(152, 75%, 70%)" opacity="0.64"></circle><circle r="16" cx="129" cy="28" fill="hsl(294, 75%, 70%)" opacity="0.99"></circle><circle r="6.5" cx="471" cy="366" fill="hsl(170, 75%, 70%)" opacity="0.45"></circle><circle r="13" cx="777" cy="196" fill="hsl(225, 75%, 70%)" opacity="0.40"></circle><circle r="8" cx="114" cy="441" fill="hsl(153, 75%, 70%)" opacity="0.62"></circle><circle r="9" cx="318" cy="141" fill="hsl(89, 75%, 70%)" opacity="0.87"></circle><circle r="8.5" cx="319" cy="72" fill="hsl(187, 75%, 70%)" opacity="0.14"></circle><circle r="4.5" cx="322" cy="735" fill="hsl(59, 75%, 70%)" opacity="0.47"></circle><circle r="8" cx="398" cy="468" fill="hsl(131, 75%, 70%)" opacity="0.10"></circle><circle r="4" cx="684" cy="438" fill="hsl(101, 75%, 70%)" opacity="0.71"></circle><circle r="9.5" cx="655" cy="52" fill="hsl(179, 75%, 70%)" opacity="0.48"></circle><circle r="10.5" cx="138" cy="765" fill="hsl(126, 75%, 70%)" opacity="0.76"></circle><circle r="12.5" cx="70" cy="337" fill="hsl(192, 75%, 70%)" opacity="0.34"></circle><circle r="11.5" cx="390" cy="651" fill="hsl(131, 75%, 70%)" opacity="0.80"></circle><circle r="14.5" cx="768" cy="493" fill="hsl(207, 75%, 70%)" opacity="0.85"></circle><circle r="6" cx="478" cy="519" fill="hsl(168, 75%, 70%)" opacity="0.41"></circle><circle r="8" cx="14" cy="723" fill="hsl(202, 75%, 70%)" opacity="0.47"></circle><circle r="12.5" cx="83" cy="20" fill="hsl(271, 75%, 70%)" opacity="0.63"></circle><circle r="6" cx="695" cy="723" fill="hsl(112, 75%, 70%)" opacity="0.55"></circle><circle r="5.5" cx="515" cy="500" fill="hsl(149, 75%, 70%)" opacity="1.00"></circle><circle r="9" cx="725" cy="147" fill="hsl(219, 75%, 70%)" opacity="0.70"></circle><circle r="8" cx="400" cy="695" fill="hsl(142, 75%, 70%)" opacity="0.70"></circle><circle r="5" cx="336" cy="474" fill="hsl(70, 75%, 70%)" opacity="0.56"></circle><circle r="11" cx="83" cy="751" fill="hsl(185, 75%, 70%)" opacity="0.29"></circle><circle r="7.5" cx="395" cy="427" fill="hsl(131, 75%, 70%)" opacity="0.86"></circle><circle r="9.5" cx="592" cy="385" fill="hsl(91, 75%, 70%)" opacity="0.65"></circle><circle r="7" cx="294" cy="762" fill="hsl(42, 75%, 70%)" opacity="0.27"></circle><circle r="6" cx="732" cy="293" fill="hsl(155, 75%, 70%)" opacity="0.21"></circle><circle r="8.5" cx="649" cy="517" fill="hsl(81, 75%, 70%)" opacity="0.58"></circle><circle r="8.5" cx="424" cy="403" fill="hsl(152, 75%, 70%)" opacity="0.37"></circle><circle r="5.5" cx="709" cy="420" fill="hsl(125, 75%, 70%)" opacity="0.24"></circle><circle r="4.5" cx="597" cy="710" fill="hsl(91, 75%, 70%)" opacity="0.69"></circle><circle r="9" cx="66" cy="415" fill="hsl(192, 75%, 70%)" opacity="0.32"></circle><circle r="6" cx="252" cy="519" fill="hsl(34, 75%, 70%)" opacity="0.12"></circle><circle r="5.5" cx="700" cy="337" fill="hsl(112, 75%, 70%)" opacity="0.63"></circle><circle r="4.5" cx="289" cy="418" fill="hsl(42, 75%, 70%)" opacity="0.36"></circle><circle r="7.5" cx="602" cy="647" fill="hsl(85, 75%, 70%)" opacity="0.83"></circle><circle r="7" cx="545" cy="109" fill="hsl(134, 75%, 70%)" opacity="0.89"></circle><circle r="8" cx="164" cy="439" fill="hsl(97, 75%, 70%)" opacity="0.70"></circle><circle r="7" cx="349" cy="67" fill="hsl(186, 75%, 70%)" opacity="0.33"></circle><circle r="6.5" cx="253" cy="473" fill="hsl(34, 75%, 70%)" opacity="0.79"></circle><circle r="13" cx="772" cy="704" fill="hsl(207, 75%, 70%)" opacity="0.36"></circle><circle r="13" cx="21" cy="132" fill="hsl(193, 75%, 70%)" opacity="0.65"></circle><circle r="5" cx="250" cy="751" fill="hsl(36, 75%, 70%)" opacity="0.50"></circle><circle r="2.5" cx="203" cy="792" fill="hsl(59, 75%, 70%)" opacity="0.10"></circle><circle r="6" cx="672" cy="331" fill="hsl(92, 75%, 70%)" opacity="0.24"></circle><circle r="8.5" cx="364" cy="115" fill="hsl(137, 75%, 70%)" opacity="0.11"></circle><circle r="7.5" cx="567" cy="678" fill="hsl(108, 75%, 70%)" opacity="0.47"></circle><circle r="12.5" cx="777" cy="391" fill="hsl(225, 75%, 70%)" opacity="0.93"></circle><circle r="10" cx="34" cy="781" fill="hsl(202, 75%, 70%)" opacity="0.64"></circle><circle r="7" cx="690" cy="593" fill="hsl(112, 75%, 70%)" opacity="0.26"></circle><circle r="8.5" cx="645" cy="723" fill="hsl(81, 75%, 70%)" opacity="0.33"></circle><circle r="7" cx="15" cy="567" fill="hsl(202, 75%, 70%)" opacity="0.44"></circle><circle r="7.5" cx="625" cy="235" fill="hsl(81, 75%, 70%)" opacity="0.33"></circle><circle r="5" cx="540" cy="700" fill="hsl(129, 75%, 70%)" opacity="0.12"></circle><circle r="9.5" cx="205" cy="614" fill="hsl(59, 75%, 70%)" opacity="0.57"></circle><circle r="6" cx="304" cy="181" fill="hsl(54, 75%, 70%)" opacity="0.92"></circle><circle r="6" cx="546" cy="23" fill="hsl(113, 75%, 70%)" opacity="0.86"></circle><circle r="8" cx="508" cy="327" fill="hsl(157, 75%, 70%)" opacity="0.24"></circle><circle r="6.5" cx="379" cy="499" fill="hsl(119, 75%, 70%)" opacity="0.71"></circle><circle r="3" cx="217" cy="781" fill="hsl(49, 75%, 70%)" opacity="0.54"></circle><circle r="11" cx="745" cy="621" fill="hsl(172, 75%, 70%)" opacity="0.43"></circle><circle r="9.5" cx="28" cy="17" fill="hsl(215, 75%, 70%)" opacity="0.86"></circle><circle r="8" cx="263" cy="12" fill="hsl(273, 75%, 70%)" opacity="0.61"></circle><circle r="6" cx="648" cy="612" fill="hsl(81, 75%, 70%)" opacity="0.87"></circle><circle r="7" cx="260" cy="207" fill="hsl(34, 75%, 70%)" opacity="0.48"></circle><circle r="9.5" cx="721" cy="571" fill="hsl(139, 75%, 70%)" opacity="0.42"></circle><circle r="11" cx="389" cy="308" fill="hsl(131, 75%, 70%)" opacity="0.99"></circle><circle r="15.5" cx="168" cy="78" fill="hsl(250, 75%, 70%)" opacity="0.40"></circle><circle r="7" cx="604" cy="200" fill="hsl(85, 75%, 70%)" opacity="0.21"></circle><circle r="10" cx="18" cy="59" fill="hsl(197, 75%, 70%)" opacity="0.28"></circle><circle r="7.5" cx="381" cy="151" fill="hsl(121, 75%, 70%)" opacity="0.19"></circle><circle r="9" cx="576" cy="432" fill="hsl(99, 75%, 70%)" opacity="0.86"></circle><circle r="10.5" cx="420" cy="66" fill="hsl(177, 75%, 70%)" opacity="0.58"></circle><circle r="7.5" cx="100" cy="465" fill="hsl(176, 75%, 70%)" opacity="0.98"></circle><circle r="12.5" cx="231" cy="107" fill="hsl(163, 75%, 70%)" opacity="0.33"></circle><circle r="14" cx="769" cy="145" fill="hsl(268, 75%, 70%)" opacity="0.22"></circle><circle r="8.5" cx="395" cy="185" fill="hsl(128, 75%, 70%)" opacity="0.79"></circle><circle r="6.5" cx="136" cy="384" fill="hsl(140, 75%, 70%)" opacity="0.33"></circle><circle r="7.5" cx="498" cy="296" fill="hsl(164, 75%, 70%)" opacity="0.28"></circle><circle r="15" cx="425" cy="597" fill="hsl(160, 75%, 70%)" opacity="0.51"></circle><circle r="9" cx="671" cy="219" fill="hsl(92, 75%, 70%)" opacity="0.60"></circle><circle r="4" cx="173" cy="789" fill="hsl(97, 75%, 70%)" opacity="0.14"></circle><circle r="8" cx="575" cy="89" fill="hsl(131, 75%, 70%)" opacity="0.68"></circle><circle r="10" cx="451" cy="300" fill="hsl(169, 75%, 70%)" opacity="0.54"></circle><circle r="9.5" cx="441" cy="128" fill="hsl(156, 75%, 70%)" opacity="0.42"></circle><circle r="7.5" cx="707" cy="268" fill="hsl(125, 75%, 70%)" opacity="0.25"></circle><circle r="9" cx="738" cy="16" fill="hsl(249, 75%, 70%)" opacity="0.36"></circle><circle r="8" cx="743" cy="402" fill="hsl(172, 75%, 70%)" opacity="0.45"></circle><circle r="6" cx="94" cy="409" fill="hsl(176, 75%, 70%)" opacity="0.46"></circle><circle r="10" cx="709" cy="525" fill="hsl(125, 75%, 70%)" opacity="0.67"></circle><circle r="5.5" cx="242" cy="430" fill="hsl(36, 75%, 70%)" opacity="0.45"></circle><circle r="6" cx="175" cy="522" fill="hsl(97, 75%, 70%)" opacity="0.80"></circle><circle r="7" cx="597" cy="744" fill="hsl(91, 75%, 70%)" opacity="0.65"></circle><circle r="13.5" cx="71" cy="145" fill="hsl(218, 75%, 70%)" opacity="0.98"></circle><circle r="5" cx="610" cy="347" fill="hsl(85, 75%, 70%)" opacity="0.26"></circle><circle r="9" cx="59" cy="620" fill="hsl(197, 75%, 70%)" opacity="0.22"></circle><circle r="5" cx="292" cy="508" fill="hsl(42, 75%, 70%)" opacity="0.18"></circle><circle r="8" cx="626" cy="111" fill="hsl(148, 75%, 70%)" opacity="0.25"></circle><circle r="8.5" cx="378" cy="739" fill="hsl(119, 75%, 70%)" opacity="0.86"></circle><circle r="5" cx="545" cy="742" fill="hsl(129, 75%, 70%)" opacity="0.18"></circle><circle r="16.5" cx="32" cy="254" fill="hsl(202, 75%, 70%)" opacity="0.84"></circle><circle r="8.5" cx="290" cy="280" fill="hsl(42, 75%, 70%)" opacity="0.58"></circle><circle r="5.5" cx="251" cy="715" fill="hsl(34, 75%, 70%)" opacity="0.55"></circle><circle r="10" cx="451" cy="706" fill="hsl(169, 75%, 70%)" opacity="0.58"></circle><circle r="5" cx="113" cy="396" fill="hsl(153, 75%, 70%)" opacity="0.22"></circle><circle r="5" cx="283" cy="706" fill="hsl(37, 75%, 70%)" opacity="0.67"></circle><circle r="8" cx="466" cy="397" fill="hsl(170, 75%, 70%)" opacity="0.70"></circle><circle r="10" cx="30" cy="590" fill="hsl(202, 75%, 70%)" opacity="0.32"></circle><circle r="10.5" cx="345" cy="267" fill="hsl(81, 75%, 70%)" opacity="0.55"></circle><circle r="7" cx="727" cy="445" fill="hsl(155, 75%, 70%)" opacity="0.13"></circle><circle r="12.5" cx="335" cy="21" fill="hsl(243, 75%, 70%)" opacity="0.35"></circle><circle r="4.5" cx="348" cy="729" fill="hsl(81, 75%, 70%)" opacity="0.24"></circle><circle r="6" cx="432" cy="787" fill="hsl(160, 75%, 70%)" opacity="0.48"></circle><circle r="8" cx="660" cy="375" fill="hsl(85, 75%, 70%)" opacity="0.49"></circle><circle r="8" cx="575" cy="250" fill="hsl(108, 75%, 70%)" opacity="0.50"></circle><circle r="8.5" cx="404" cy="775" fill="hsl(142, 75%, 70%)" opacity="0.11"></circle><circle r="8" cx="574" cy="51" fill="hsl(125, 75%, 70%)" opacity="0.12"></circle><circle r="10" cx="120" cy="342" fill="hsl(153, 75%, 70%)" opacity="0.81"></circle><circle r="7" cx="265" cy="324" fill="hsl(34, 75%, 70%)" opacity="0.55"></circle><circle r="9.5" cx="549" cy="213" fill="hsl(129, 75%, 70%)" opacity="0.73"></circle><circle r="7" cx="361" cy="452" fill="hsl(94, 75%, 70%)" opacity="0.65"></circle><circle r="5" cx="205" cy="365" fill="hsl(59, 75%, 70%)" opacity="0.18"></circle><circle r="7.5" cx="490" cy="191" fill="hsl(164, 75%, 70%)" opacity="0.94"></circle><circle r="7.5" cx="786" cy="309" fill="hsl(225, 75%, 70%)" opacity="0.59"></circle><circle r="5.5" cx="791" cy="36" fill="hsl(277, 75%, 70%)" opacity="0.99"></circle><circle r="9" cx="434" cy="177" fill="hsl(155, 75%, 70%)" opacity="0.18"></circle><circle r="8" cx="306" cy="226" fill="hsl(49, 75%, 70%)" opacity="0.15"></circle><circle r="6" cx="611" cy="687" fill="hsl(85, 75%, 70%)" opacity="0.13"></circle><circle r="8" cx="561" cy="335" fill="hsl(119, 75%, 70%)" opacity="0.57"></circle><circle r="8" cx="171" cy="269" fill="hsl(97, 75%, 70%)" opacity="0.79"></circle><circle r="8.5" cx="150" cy="173" fill="hsl(157, 75%, 70%)" opacity="0.57"></circle><circle r="9" cx="350" cy="197" fill="hsl(81, 75%, 70%)" opacity="0.21"></circle><circle r="6.5" cx="663" cy="418" fill="hsl(92, 75%, 70%)" opacity="0.48"></circle><circle r="5.5" cx="139" cy="418" fill="hsl(126, 75%, 70%)" opacity="0.14"></circle><circle r="8" cx="777" cy="13" fill="hsl(262, 75%, 70%)" opacity="0.25"></circle><circle r="6.5" cx="187" cy="231" fill="hsl(84, 75%, 70%)" opacity="0.48"></circle><circle r="6" cx="229" cy="229" fill="hsl(42, 75%, 70%)" opacity="0.82"></circle><circle r="4.5" cx="523" cy="730" fill="hsl(149, 75%, 70%)" opacity="0.65"></circle><circle r="12.5" cx="278" cy="47" fill="hsl(230, 75%, 70%)" opacity="0.74"></circle><circle r="9" cx="345" cy="594" fill="hsl(81, 75%, 70%)" opacity="0.60"></circle><circle r="10.5" cx="80" cy="229" fill="hsl(185, 75%, 70%)" opacity="0.70"></circle><circle r="6" cx="710" cy="657" fill="hsl(125, 75%, 70%)" opacity="0.85"></circle><circle r="6.5" cx="642" cy="678" fill="hsl(81, 75%, 70%)" opacity="0.18"></circle><circle r="11" cx="471" cy="450" fill="hsl(170, 75%, 70%)" opacity="0.86"></circle><circle r="7" cx="732" cy="734" fill="hsl(155, 75%, 70%)" opacity="0.35"></circle><circle r="7.5" cx="552" cy="774" fill="hsl(119, 75%, 70%)" opacity="0.89"></circle><circle r="11" cx="59" cy="458" fill="hsl(197, 75%, 70%)" opacity="0.36"></circle><circle r="8" cx="426" cy="16" fill="hsl(189, 75%, 70%)" opacity="0.67"></circle><circle r="7.5" cx="658" cy="774" fill="hsl(85, 75%, 70%)" opacity="0.41"></circle><circle r="5" cx="235" cy="396" fill="hsl(42, 75%, 70%)" opacity="0.59"></circle><circle r="12" cx="19" cy="641" fill="hsl(202, 75%, 70%)" opacity="0.93"></circle><circle r="8" cx="337" cy="645" fill="hsl(70, 75%, 70%)" opacity="0.89"></circle><circle r="10.5" cx="537" cy="651" fill="hsl(139, 75%, 70%)" opacity="0.45"></circle><circle r="5.5" cx="354" cy="517" fill="hsl(94, 75%, 70%)" opacity="0.66"></circle><circle r="9" cx="52" cy="728" fill="hsl(197, 75%, 70%)" opacity="0.22"></circle><circle r="8.5" cx="379" cy="78" fill="hsl(173, 75%, 70%)" opacity="0.18"></circle><circle r="13" cx="98" cy="89" fill="hsl(257, 75%, 70%)" opacity="0.59"></circle><circle r="7" cx="353" cy="406" fill="hsl(94, 75%, 70%)" opacity="0.80"></circle><circle r="6" cx="334" cy="543" fill="hsl(70, 75%, 70%)" opacity="0.20"></circle><circle r="8" cx="515" cy="127" fill="hsl(143, 75%, 70%)" opacity="0.88"></circle><circle r="6.5" cx="155" cy="215" fill="hsl(112, 75%, 70%)" opacity="0.35"></circle><circle r="5.5" cx="188" cy="742" fill="hsl(71, 75%, 70%)" opacity="0.42"></circle><circle r="7" cx="600" cy="279" fill="hsl(91, 75%, 70%)" opacity="0.50"></circle><circle r="16" cx="475" cy="651" fill="hsl(170, 75%, 70%)" opacity="0.91"></circle><circle r="9.5" cx="477" cy="112" fill="hsl(154, 75%, 70%)" opacity="0.26"></circle><circle r="6.5" cx="192" cy="179" fill="hsl(85, 75%, 70%)" opacity="0.17"></circle><circle r="5" cx="308" cy="341" fill="hsl(49, 75%, 70%)" opacity="0.40"></circle><circle r="10" cx="379" cy="555" fill="hsl(119, 75%, 70%)" opacity="0.73"></circle><circle r="7" cx="210" cy="712" fill="hsl(59, 75%, 70%)" opacity="0.61"></circle><circle r="10.5" cx="86" cy="537" fill="hsl(185, 75%, 70%)" opacity="0.84"></circle><circle r="9.5" cx="744" cy="111" fill="hsl(266, 75%, 70%)" opacity="0.47"></circle><circle r="9" cx="491" cy="708" fill="hsl(164, 75%, 70%)" opacity="0.86"></circle><circle r="10.5" cx="287" cy="100" fill="hsl(136, 75%, 70%)" opacity="0.84"></circle><circle r="8.5" cx="509" cy="395" fill="hsl(157, 75%, 70%)" opacity="0.39"></circle><circle r="6" cx="462" cy="81" fill="hsl(163, 75%, 70%)" opacity="0.56"></circle><circle r="11.5" cx="381" cy="29" fill="hsl(215, 75%, 70%)" opacity="0.82"></circle><circle r="4.5" cx="310" cy="393" fill="hsl(49, 75%, 70%)" opacity="0.96"></circle><circle r="9" cx="522" cy="432" fill="hsl(149, 75%, 70%)" opacity="0.55"></circle><circle r="5" cx="265" cy="666" fill="hsl(34, 75%, 70%)" opacity="0.46"></circle><circle r="10" cx="479" cy="559" fill="hsl(168, 75%, 70%)" opacity="0.31"></circle><circle r="9.5" cx="151" cy="310" fill="hsl(112, 75%, 70%)" opacity="0.76"></circle><circle r="7.5" cx="354" cy="367" fill="hsl(94, 75%, 70%)" opacity="0.37"></circle><circle r="6" cx="536" cy="152" fill="hsl(138, 75%, 70%)" opacity="0.98"></circle><circle r="13.5" cx="98" cy="643" fill="hsl(176, 75%, 70%)" opacity="0.11"></circle><circle r="4.5" cx="317" cy="493" fill="hsl(59, 75%, 70%)" opacity="0.21"></circle><circle r="7" cx="698" cy="627" fill="hsl(112, 75%, 70%)" opacity="0.13"></circle><circle r="11" cx="17" cy="459" fill="hsl(202, 75%, 70%)" opacity="0.38"></circle><circle r="4.5" cx="450" cy="492" fill="hsl(169, 75%, 70%)" opacity="0.28"></circle><circle r="9.5" cx="433" cy="544" fill="hsl(160, 75%, 70%)" opacity="0.20"></circle><circle r="7" cx="458" cy="781" fill="hsl(169, 75%, 70%)" opacity="0.17"></circle><circle r="8.5" cx="224" cy="558" fill="hsl(49, 75%, 70%)" opacity="0.32"></circle><circle r="7.5" cx="165" cy="682" fill="hsl(97, 75%, 70%)" opacity="0.82"></circle><circle r="9.5" cx="783" cy="259" fill="hsl(225, 75%, 70%)" opacity="0.18"></circle><circle r="8.5" cx="229" cy="282" fill="hsl(42, 75%, 70%)" opacity="0.34"></circle><circle r="8.5" cx="493" cy="225" fill="hsl(164, 75%, 70%)" opacity="0.84"></circle><circle r="8" cx="559" cy="520" fill="hsl(119, 75%, 70%)" opacity="0.99"></circle><circle r="13.5" cx="141" cy="120" fill="hsl(223, 75%, 70%)" opacity="0.40"></circle><circle r="7" cx="507" cy="82" fill="hsl(144, 75%, 70%)" opacity="0.30"></circle><circle r="8" cx="702" cy="483" fill="hsl(125, 75%, 70%)" opacity="0.76"></circle><circle r="9.5" cx="616" cy="68" fill="hsl(147, 75%, 70%)" opacity="0.51"></circle><circle r="12.5" cx="103" cy="280" fill="hsl(165, 75%, 70%)" opacity="0.66"></circle><circle r="5.5" cx="701" cy="690" fill="hsl(125, 75%, 70%)" opacity="0.57"></circle><circle r="8.5" cx="622" cy="19" fill="hsl(132, 75%, 70%)" opacity="0.65"></circle><circle r="5" cx="252" cy="364" fill="hsl(34, 75%, 70%)" opacity="0.49"></circle><circle r="7" cx="205" cy="329" fill="hsl(59, 75%, 70%)" opacity="0.75"></circle><circle r="9.5" cx="487" cy="22" fill="hsl(147, 75%, 70%)" opacity="0.14"></circle><circle r="10" cx="782" cy="599" fill="hsl(225, 75%, 70%)" opacity="0.51"></circle><circle r="6.5" cx="655" cy="645" fill="hsl(85, 75%, 70%)" opacity="0.33"></circle><circle r="7" cx="409" cy="520" fill="hsl(142, 75%, 70%)" opacity="0.73"></circle><circle r="8" cx="721" cy="363" fill="hsl(139, 75%, 70%)" opacity="0.98"></circle><circle r="11.5" cx="42" cy="92" fill="hsl(222, 75%, 70%)" opacity="0.99"></circle><circle r="5.5" cx="673" cy="463" fill="hsl(92, 75%, 70%)" opacity="1.00"></circle><circle r="13" cx="512" cy="596" fill="hsl(157, 75%, 70%)" opacity="0.91"></circle><circle r="8.5" cx="752" cy="754" fill="hsl(190, 75%, 70%)" opacity="0.24"></circle><circle r="10.5" cx="580" cy="605" fill="hsl(99, 75%, 70%)" opacity="0.23"></circle><circle r="8.5" cx="103" cy="498" fill="hsl(165, 75%, 70%)" opacity="0.77"></circle><circle r="5.5" cx="292" cy="642" fill="hsl(42, 75%, 70%)" opacity="0.34"></circle><circle r="8" cx="208" cy="457" fill="hsl(59, 75%, 70%)" opacity="0.72"></circle><circle r="6.5" cx="290" cy="453" fill="hsl(42, 75%, 70%)" opacity="0.24"></circle><circle r="6.5" cx="632" cy="292" fill="hsl(80, 75%, 70%)" opacity="0.64"></circle><circle r="5.5" cx="12" cy="762" fill="hsl(201, 75%, 70%)" opacity="0.38"></circle><circle r="6" cx="586" cy="785" fill="hsl(99, 75%, 70%)" opacity="0.68"></circle><circle r="4" cx="521" cy="704" fill="hsl(149, 75%, 70%)" opacity="0.89"></circle><circle r="8" cx="758" cy="284" fill="hsl(190, 75%, 70%)" opacity="0.52"></circle><circle r="14" cx="28" cy="320" fill="hsl(202, 75%, 70%)" opacity="0.71"></circle><circle r="10.5" cx="420" cy="271" fill="hsl(152, 75%, 70%)" opacity="0.93"></circle><circle r="3" cx="226" cy="760" fill="hsl(42, 75%, 70%)" opacity="0.52"></circle><circle r="5.5" cx="689" cy="751" fill="hsl(112, 75%, 70%)" opacity="0.62"></circle><circle r="9" cx="687" cy="68" fill="hsl(206, 75%, 70%)" opacity="0.84"></circle><circle r="9.5" cx="774" cy="53" fill="hsl(289, 75%, 70%)" opacity="0.76"></circle><circle r="6" cx="568" cy="717" fill="hsl(108, 75%, 70%)" opacity="0.46"></circle><circle r="7" cx="461" cy="748" fill="hsl(169, 75%, 70%)" opacity="1.00"></circle><circle r="10" cx="533" cy="260" fill="hsl(139, 75%, 70%)" opacity="0.19"></circle><circle r="9" cx="120" cy="234" fill="hsl(153, 75%, 70%)" opacity="0.73"></circle><circle r="10" cx="396" cy="368" fill="hsl(131, 75%, 70%)" opacity="0.68"></circle><circle r="6.5" cx="473" cy="491" fill="hsl(170, 75%, 70%)" opacity="1.00"></circle><circle r="7" cx="292" cy="555" fill="hsl(42, 75%, 70%)" opacity="0.37"></circle><circle r="13" cx="733" cy="224" fill="hsl(155, 75%, 70%)" opacity="0.31"></circle><circle r="7.5" cx="110" cy="195" fill="hsl(165, 75%, 70%)" opacity="0.96"></circle><circle r="7" cx="627" cy="580" fill="hsl(80, 75%, 70%)" opacity="0.84"></circle><circle r="6" cx="325" cy="434" fill="hsl(59, 75%, 70%)" opacity="0.20"></circle><circle r="7.5" cx="72" cy="377" fill="hsl(192, 75%, 70%)" opacity="0.37"></circle><circle r="7" cx="199" cy="404" fill="hsl(71, 75%, 70%)" opacity="0.76"></circle><circle r="9" cx="784" cy="654" fill="hsl(225, 75%, 70%)" opacity="0.48"></circle><circle r="6.5" cx="92" cy="787" fill="hsl(176, 75%, 70%)" opacity="0.75"></circle><circle r="13.5" cx="121" cy="699" fill="hsl(153, 75%, 70%)" opacity="0.43"></circle><circle r="9" cx="688" cy="17" fill="hsl(207, 75%, 70%)" opacity="0.23"></circle><circle r="6" cx="520" cy="31" fill="hsl(127, 75%, 70%)" opacity="0.31"></circle><circle r="10.5" cx="687" cy="175" fill="hsl(132, 75%, 70%)" opacity="0.49"></circle><circle r="15.5" cx="35" cy="192" fill="hsl(202, 75%, 70%)" opacity="0.33"></circle><circle r="10" cx="697" cy="119" fill="hsl(198, 75%, 70%)" opacity="0.85"></circle><circle r="7" cx="207" cy="510" fill="hsl(59, 75%, 70%)" opacity="0.59"></circle><circle r="9.5" cx="484" cy="262" fill="hsl(168, 75%, 70%)" opacity="0.71"></circle><circle r="15.5" cx="769" cy="550" fill="hsl(207, 75%, 70%)" opacity="0.68"></circle><circle r="7" cx="701" cy="783" fill="hsl(125, 75%, 70%)" opacity="0.89"></circle><circle r="11" cx="46" cy="501" fill="hsl(201, 75%, 70%)" opacity="0.13"></circle><circle r="11.5" cx="443" cy="227" fill="hsl(166, 75%, 70%)" opacity="0.37"></circle><circle r="8" cx="87" cy="57" fill="hsl(265, 75%, 70%)" opacity="0.62"></circle></svg>